<?xml version="1.0" encoding="UTF-8"?>
<svg width="62px" height="36px" viewBox="0 0 62 36" version="1.1" xmlns="http://www.w3.org/2000/svg" xmlns:xlink="http://www.w3.org/1999/xlink">
    <title>4C44A4F5-B205-4D7B-A2AB-A190F0DFA723</title>
    <defs>
        <path d="M2.86166875,0.0432073913 C4.36533637,0.0531675367 5.6150757,1.32399792 5.61183557,2.84004428 C5.60886511,4.3451485 4.31155834,5.64964698 2.83739101,5.63014754 C1.33654639,5.61036753 0.104450768,4.33981772 0.107268921,2.81493349 C0.110237906,1.29425777 1.36322368,0.0332472459 2.86166875,0.0432073913 Z" id="path-1"></path>
        <path d="M17.8671508,0.0419448377 C22.5929835,0.402053193 26.0071121,2.73272722 28.2240091,7.06146252 C28.4368628,6.71945076 28.576601,6.51140998 28.6996836,6.29397019 C30.9956244,2.23850761 34.4214684,0.0537286716 39.1631098,0.0123449689 C42.3866864,-0.0159923461 45.3049562,0.837073064 47.8051406,2.91018614 C50.2549345,4.94149467 51.6565509,7.59945065 51.9964394,10.6983184 C52.2546022,13.0532615 52.1631372,15.4477647 52.193202,17.8250129 C52.2200205,19.9360026 52.1759818,22.047834 52.206329,24.1586834 C52.2445805,26.8176213 53.7682914,28.7895898 56.0242869,29.0352267 C57.9108936,29.2407423 59.7232555,28.9836023 61.2826773,27.7676228 C61.3742834,27.6962184 61.4828275,27.6462774 61.7049984,27.5138495 L61.7049984,31.7800183 C61.7049984,31.8155998 61.7049984,31.8504798 61.7049984,31.8846772 L61.7049984,32.0340224 C61.7017405,33.5631652 61.6306113,33.616613 60.0322322,34.2323183 C58.5749312,34.7937908 57.0861997,35.1481518 55.5894883,35.2028834 L54.7861647,35.2028834 C53.8540532,35.1684077 52.9204767,35.011624 51.9910757,34.710265 C48.4003688,33.5463308 46.5737507,30.773763 45.8246693,27.2394545 C45.623531,26.2907156 45.6180262,25.2906328 45.6105452,24.3135566 C45.5859852,21.0487332 45.6201434,17.7833486 45.5924781,14.5186655 C45.5794923,12.9999537 45.4871804,11.4872742 44.9073375,10.0403877 C43.8940239,7.51219417 41.4764121,5.95153758 38.7845464,5.77029099 C33.5713238,5.4191608 30.3159886,9.83290805 29.6690996,13.7274652 C29.5612612,14.3764178 29.5138349,15.0423447 29.5125646,15.700556 C29.5008492,21.567783 29.5059306,27.4350101 29.5052248,33.3022371 L29.5052154,33.3415491 L29.5051297,33.4169656 C29.5033071,34.2477881 29.464745,34.2737638 28.5927703,34.2756798 L28.5136483,34.2758063 C26.9080706,34.2777702 25.3019283,34.2497135 23.6973386,34.2887124 C23.0175618,34.3052658 22.8104952,34.0845995 22.8128947,33.4039428 C22.8354787,26.8247758 22.8415481,20.2456088 22.8161411,13.666582 C22.8086602,11.6922287 22.36051,9.81677542 21.0821172,8.23184974 C19.8340717,6.68452011 18.1614479,5.87648578 16.2010199,5.81476094 C11.5077928,5.66732273 7.93007171,8.58003398 7.00455322,13.2648094 C6.8065202,14.267277 6.70715083,15.3046752 6.70206944,16.3266423 C6.67369835,21.9973318 6.67482755,27.6683019 6.70475128,33.3389915 C6.70884462,34.0948402 6.47622994,34.3129815 5.73462948,34.2913778 C4.08120205,34.2428396 2.42495162,34.2593931 0.770394991,34.2847844 C0.192387023,34.2937626 -0.000705748435,34.0923151 -1.92642001e-06,33.5144864 C0.0129857712,22.8602171 0.0128446215,12.2058075 -1.92642001e-06,1.55153814 C-1.92642001e-06,0.988719785 0.153570859,0.764265804 0.75289243,0.775207936 C2.4811292,0.806631493 4.21091861,0.806070358 5.93915538,0.77534822 C6.52972567,0.764826939 6.71293796,0.970482899 6.69882299,1.54382254 C6.66579397,2.88633791 6.68823677,4.2303964 6.68823677,5.57389376 C6.7627638,5.61710115 6.83729084,5.66016826 6.91167672,5.70337565 C9.49499829,1.72282459 13.0682026,-0.323915151 17.8671508,0.0419448377 Z" id="path-3"></path>
    </defs>
    <g id="Menu-Home-Desktop" stroke="none" stroke-width="1" fill="none" fill-rule="evenodd">
        <g id="Menéame-Portada" transform="translate(-70.000000, -5119.000000)">
            <g id="Footer" transform="translate(0.000000, 4997.000000)">
                <g transform="translate(0.000000, 74.000000)" id="menu">
                    <g transform="translate(70.000000, 48.699387)" id="logo-meneame-orange">
                        <g id="Group-3" transform="translate(37.828116, 11.643550)">
                            <mask id="mask-2" fill="white">
                                <use xlink:href="#path-1"></use>
                            </mask>
                            <g id="Clip-2"></g>
                            <polygon id="Fill-1" fill="#E35624" mask="url(#mask-2)" points="0.0959817871 5.63098924 5.61775754 5.63098924 5.61775754 0.0420851214 0.0959817871 0.0420851214"></polygon>
                        </g>
                        <g id="Group-6">
                            <mask id="mask-4" fill="white">
                                <use xlink:href="#path-3"></use>
                            </mask>
                            <g id="Clip-5"></g>
                            <polygon id="Fill-4" fill="#E35624" mask="url(#mask-4)" points="0 35.2028012 61.7049972 35.2028012 61.7049972 -0.0140283738 0 -0.0140283738"></polygon>
                        </g>
                    </g>
                </g>
            </g>
        </g>
    </g>
</svg>