<svg width="138px" height="24px" viewBox="0 0 138 24" version="1.1" xmlns="http://www.w3.org/2000/svg" xmlns:xlink="http://www.w3.org/1999/xlink">
    <title>Menéame</title>
    <desc>Logo Menéame</desc>
    <defs>
        <path d="M1.9385498,0.0294501992 C2.95716335,0.0362390438 3.80376096,0.902438247 3.80156603,1.93577689 C3.79955378,2.96165737 2.92073307,3.85080478 1.92210359,3.83751394 C0.90540239,3.82403187 0.0707569721,2.9580239 0.072666043,1.91866135 C0.0746772908,0.882167331 0.923474104,0.0226613546 1.9385498,0.0294501992 Z" id="path-1"></path>
        <path d="M12.1035551,0.0285058319 C15.3049256,0.273956031 17.6177224,1.86254567 19.1194913,4.81301579 C19.2636826,4.57990025 19.3583439,4.43809946 19.4417224,4.28989229 C20.9970372,1.52568511 23.3177702,0.0365377044 26.5298499,0.0083305331 C28.7135631,-0.0109842079 30.6904555,0.570465991 32.3841288,1.98350185 C34.0436666,3.36804368 34.9931487,5.17970902 35.2233957,7.29190025 C35.3982802,8.89703173 35.33632,10.5291273 35.3566866,12.149462 C35.3748539,13.5883146 35.3450212,15.0277409 35.365579,16.4664979 C35.3914913,18.2788325 36.4236826,19.6229281 37.9519376,19.7903544 C39.2299615,19.9304341 40.4576905,19.7551672 41.514073,18.9263544 C41.5761288,18.8776851 41.6496587,18.8436453 41.8001615,18.7533823 L41.8001615,21.661207 C41.8001615,21.6854595 41.8001615,21.7092337 41.8001615,21.7325427 L41.8001615,21.8343365 C41.7979545,22.8766017 41.7497702,22.9130317 40.6669973,23.3326971 C39.6797934,23.7153972 38.6712979,23.9569301 37.6573966,23.9942352 L37.1132097,23.9942352 C36.4817793,23.9707365 35.8493565,23.8638726 35.2197623,23.658466 C32.7873479,22.8651273 31.5499615,20.9753425 31.0425192,18.5663544 C30.9062643,17.9196931 30.9025352,17.2380357 30.8974674,16.5720596 C30.88083,14.3467528 30.9039694,12.1210636 30.8852284,9.89585245 C30.8764316,8.86069707 30.8138977,7.82965324 30.4211009,6.84345404 C29.7346627,5.12023492 28.0969256,4.0564899 26.2734037,3.93295205 C22.7418658,3.69362137 20.5366388,6.70203571 20.0984236,9.35656958 C20.0253718,9.79889627 19.9932443,10.2527927 19.9923838,10.7014301 C19.9844475,14.7005377 19.9878898,18.6996453 19.9874117,22.6987528 L19.9874053,22.7255479 L19.9873472,22.7769519 C19.9861126,23.3432413 19.9599899,23.3609464 19.3692973,23.3622523 L19.3156985,23.3623385 C18.2280491,23.3636771 17.1400172,23.3445536 16.0530372,23.3711353 C15.5925431,23.3824182 15.4522722,23.2320118 15.4538977,22.7680756 C15.4691965,18.283709 15.4733081,13.7993425 15.4560969,9.31507157 C15.4510292,7.96935045 15.1474435,6.6910397 14.2814356,5.61075284 C13.4359854,4.55609149 12.3029176,4.00533452 10.9748858,3.9632628 C7.7956029,3.86276878 5.37198537,5.84807555 4.74502123,9.04122296 C4.61086983,9.72450583 4.54355509,10.4315975 4.54011286,11.1281712 C4.52089374,14.9933186 4.52165868,18.8586572 4.54192959,22.7238046 C4.5447025,23.2389919 4.38712481,23.3876771 3.88475031,23.372952 C2.76468656,23.3398684 1.64271047,23.3511513 0.521881783,23.368458 C0.130327998,23.3745775 -0.000476782655,23.2372708 0,22.8434222 C0.00879811774,15.581462 0.00870250021,8.31940623 0,1.05744607 C0,0.673828541 0.104033178,0.520840493 0.510025209,0.528298661 C1.68076625,0.549716987 2.85255907,0.549334517 4.02330011,0.528394278 C4.42336385,0.521222963 4.54747541,0.661398262 4.53791366,1.05218711 C4.51553915,1.96724687 4.53074234,2.88335842 4.53074234,3.79908751 C4.5812284,3.8285377 4.63171445,3.85789229 4.68210489,3.88734249 C6.43209692,1.17419507 8.85265469,-0.220864686 12.1035551,0.0285058319 Z" id="path-3"></path>
    </defs>
    <g id="Menu-Home-Desktop" stroke="none" stroke-width="1" fill="none" fill-rule="evenodd">
        <g id="Menéame-Story-con-Foto-y-Relacionadas" transform="translate(-73.000000, -19.000000)">
            <g id="logo-meneame-texto" transform="translate(72.999999, 19.000084)">
                <g id="logo-meneame-orange">
                    <g id="Group-3" transform="translate(25.625499, 7.936171)">
                        <mask id="mask-2" fill="white">
                            <use xlink:href="#path-1"></use>
                        </mask>
                        <g id="Clip-2"></g>
                        <polygon id="Fill-1" fill="#E35624" mask="url(#mask-2)" points="0.0650199203 3.83808765 3.80557769 3.83808765 3.80557769 0.028685259 0.0650199203 0.028685259"></polygon>
                    </g>
                    <g id="Group-6">
                        <mask id="mask-4" fill="white">
                            <use xlink:href="#path-3"></use>
                        </mask>
                        <g id="Clip-5"></g>
                        <polygon id="Fill-4" fill="#E35624" mask="url(#mask-4)" points="1.30499393e-06 23.9941791 41.8001607 23.9941791 41.8001607 -0.00964556252 1.30499393e-06 -0.00964556252"></polygon>
                    </g>
                </g>
                <g id="menéame-texto" transform="translate(50.250001, 1.549916)" fill="#E35624" fill-rule="nonzero">
                    <path d="M16.45,15.05 L16.45,12.75 C16.175,13 15.8,13.15 15.425,13.15 C14.875,13.15 14.4,12.825 14.4,12.25 L14.4,9.2 C14.4,7.15 12.9,5.75 10.875,5.75 C9.75,5.75 8.575,6.15 8.025,7.2 C7.4,6.275 6.425,5.75 5.3,5.75 C4.375,5.75 3.425,6.1 2.85,6.875 L2.85,5.95 L0,5.95 L0,15.45 L2.85,15.45 L2.85,9.85 C3.025,8.9 3.6,8.1 4.55,8.1 C5.375,8.1 5.775,8.75 5.775,9.5 L5.775,15.45 L8.625,15.45 L8.625,9.875 C8.8,8.95 9.375,8.1 10.325,8.1 C11.15,8.1 11.575,8.75 11.575,9.5 L11.575,12.625 C11.575,14.175 12.65,15.675 14.3,15.675 C15.05,15.675 15.875,15.5 16.45,15.05 Z" id="Path"></path>
                    <path d="M20.9208333,13.05 L25.9208333,8.05 C24.8208333,6.475 23.4458333,5.75 21.5208333,5.75 C18.8958333,5.75 16.7208333,8.025 16.7208333,10.625 C16.7208333,13.775 19.2208333,15.675 22.2208333,15.675 C23.0708333,15.675 24.1208333,15.5 24.8958333,15.125 L24.8958333,12.375 C24.1458333,13.025 23.1708333,13.275 22.2208333,13.275 C21.7458333,13.275 21.3208333,13.2 20.9208333,13.05 Z M21.3958333,8.15 C21.7208333,8.15 22.2458333,8.225 22.4958333,8.475 L19.4458333,11.65 C19.3208333,11.35 19.2458333,11 19.2458333,10.625 C19.2458333,9.325 19.9958333,8.15 21.3958333,8.15 Z" id="Shape"></path>
                    <path d="M36.8166667,13.15 C36.2916667,13.15 35.8166667,12.825 35.8166667,12.25 L35.8166667,9.2 C35.8166667,7.325 34.4416667,5.75 32.4916667,5.75 C31.5666667,5.75 30.6166667,6.1 30.0416667,6.875 L30.0416667,5.95 L27.1916667,5.95 L27.1916667,15.45 L30.0416667,15.45 L30.0416667,9.85 C30.2416667,8.875 30.7916667,8.1 31.7416667,8.1 C32.5666667,8.1 32.9666667,8.75 32.9666667,9.5 L32.9666667,12.625 C32.9666667,14.175 34.0416667,15.675 35.7166667,15.675 C36.4416667,15.675 37.2666667,15.5 37.8666667,15.05 L37.8666667,12.75 C37.5666667,13 37.1916667,13.15 36.8166667,13.15 Z" id="Path"></path>
                    <path d="M46.0875,1.6 L44.4875,0 L41.3625,3.175 L42.9375,4.75 L46.0875,1.6 Z M42.3375,13.05 L47.3375,8.05 C46.2375,6.475 44.8625,5.75 42.9375,5.75 C40.3125,5.75 38.1375,8.025 38.1375,10.625 C38.1375,13.775 40.6375,15.675 43.6375,15.675 C44.4875,15.675 45.5375,15.5 46.3125,15.125 L46.3125,12.375 C45.5625,13.025 44.5875,13.275 43.6375,13.275 C43.1625,13.275 42.7375,13.2 42.3375,13.05 Z M42.8125,8.15 C43.1375,8.15 43.6625,8.225 43.9125,8.475 L40.8625,11.65 C40.7375,11.35 40.6625,11 40.6625,10.625 C40.6625,9.325 41.4125,8.15 42.8125,8.15 Z" id="Shape"></path>
                    <path d="M59.2583333,13.15 C58.7083333,13.15 58.2583333,12.825 58.2583333,12.25 L58.2583333,5.95 L55.4083333,5.95 L55.4083333,7.05 C54.6583333,6.15 53.6333333,5.75 52.4583333,5.75 C49.6583333,5.75 47.8583333,8.025 47.8583333,10.7 C47.8583333,13.4 49.6583333,15.675 52.4583333,15.675 C53.8083333,15.675 54.9583333,15.125 55.6833333,13.975 C56.1333333,15.05 57.1083333,15.675 58.1333333,15.675 C58.8833333,15.675 59.7083333,15.5 60.3083333,15.05 L60.3083333,12.75 C60.0083333,13 59.6333333,13.15 59.2583333,13.15 Z M53.1333333,13.3 C51.7333333,13.3 50.6833333,12.075 50.6833333,10.7 C50.6833333,9.325 51.7333333,8.1 53.1333333,8.1 C54.1583333,8.1 55.0583333,8.775 55.4083333,9.725 L55.4083333,11.675 C55.0583333,12.625 54.1333333,13.3 53.1333333,13.3 Z" id="Shape"></path>
                    <path d="M77.7791667,15.05 L77.7791667,12.75 C77.5041667,13 77.1291667,13.15 76.7541667,13.15 C76.2041667,13.15 75.7291667,12.825 75.7291667,12.25 L75.7291667,9.2 C75.7291667,7.15 74.2291667,5.75 72.2041667,5.75 C71.0791667,5.75 69.9041667,6.15 69.3541667,7.2 C68.7291667,6.275 67.7541667,5.75 66.6291667,5.75 C65.7041667,5.75 64.7541667,6.1 64.1791667,6.875 L64.1791667,5.95 L61.3291667,5.95 L61.3291667,15.45 L64.1791667,15.45 L64.1791667,9.85 C64.3541667,8.9 64.9291667,8.1 65.8791667,8.1 C66.7041667,8.1 67.1041667,8.75 67.1041667,9.5 L67.1041667,15.45 L69.9541667,15.45 L69.9541667,9.875 C70.1291667,8.95 70.7041667,8.1 71.6541667,8.1 C72.4791667,8.1 72.9041667,8.75 72.9041667,9.5 L72.9041667,12.625 C72.9041667,14.175 73.9791667,15.675 75.6291667,15.675 C76.3791667,15.675 77.2041667,15.5 77.7791667,15.05 Z" id="Path"></path>
                    <path d="M82.25,13.05 L87.25,8.05 C86.15,6.475 84.775,5.75 82.85,5.75 C80.225,5.75 78.05,8.025 78.05,10.625 C78.05,13.775 80.55,15.675 83.55,15.675 C84.4,15.675 85.45,15.5 86.225,15.125 L86.225,12.375 C85.475,13.025 84.5,13.275 83.55,13.275 C83.075,13.275 82.65,13.2 82.25,13.05 Z M82.725,8.15 C83.05,8.15 83.575,8.225 83.825,8.475 L80.775,11.65 C80.65,11.35 80.575,11 80.575,10.625 C80.575,9.325 81.325,8.15 82.725,8.15 Z" id="Shape"></path>
                </g>
            </g>
        </g>
    </g>
</svg>