<svg width="100%" height="100%" viewBox="0 0 174 32" fill="none" xmlns="http://www.w3.org/2000/svg">
<g clip-path="url(#clip0_231_30257)">
<path d="M11.8828 31.2001V21.6001H21.8828V25.5001C21.8828 28.6001 19.3828 31.2001 16.1828 31.2001H11.8828Z" fill="#88CFB0"></path>
<path d="M22.0828 21.4002V11.2002H32.0828V15.7002C32.0828 18.8002 29.5828 21.4002 26.3828 21.4002H22.0828Z" fill="#F2C94C"></path>
<path d="M21.8828 11.2002H11.8828V21.3002H21.8828V11.2002Z" fill="#BD83CE"></path>
<path d="M1.68286 10.9998V6.4998C1.68286 3.3998 4.18286 0.799805 7.38286 0.799805H11.6829V10.9998H1.68286Z" fill="#40BE88"></path>
<path d="M22.0828 10.9998V0.799805H26.3828C29.4828 0.799805 32.0828 3.2998 32.0828 6.4998V10.9998H22.0828Z" fill="#FF7474"></path>
<path d="M21.8828 0.799805H11.8828V10.8998H21.8828V0.799805Z" fill="#6776F9"></path>
<path d="M1.68286 25.5001V21.6001H11.6829V31.2001H7.38286C4.18286 31.2001 1.68286 28.7001 1.68286 25.5001Z" fill="#37C2E2"></path>
<path d="M11.6829 11.2002H1.68286V21.3002H11.6829V11.2002Z" fill="#F2994A"></path>
<path fill-rule="evenodd" clip-rule="evenodd" d="M0.882812 25.5V6.5C0.882812 2.9 3.78281 0 7.38281 0H26.3828C29.9828 0 32.8828 2.9 32.8828 6.5V15.7C32.8828 19.3 29.9828 22.2 26.3828 22.2H22.6828V25.5C22.6828 29.1 19.7828 32 16.1828 32H7.38281C3.78281 32 0.882812 29.1 0.882812 25.5ZM10.8828 10.1H2.58281V6.4C2.58281 3.8 4.68281 1.6 7.38281 1.6H10.8828V10.1ZM26.3828 20.6H22.8828V12H31.1828V15.8C31.1828 18.4 29.0828 20.6 26.3828 20.6ZM16.1828 30.4H12.6828V22.5H20.9828V25.6C20.9828 28.2 18.8828 30.4 16.1828 30.4ZM12.6828 20.6H20.9828V12H12.6828V20.6ZM22.8828 10.1H31.1828V6.5C31.1828 3.8 28.9828 1.7 26.3828 1.7H22.8828V10.1ZM20.9828 10.1H12.6828V1.6H20.9828V10.1ZM2.48281 22.4V25.5C2.48281 28.2 4.68281 30.3 7.28281 30.3H10.8828V22.4H2.48281ZM10.8828 20.6H2.48281V12H10.8828V20.6Z" fill="#2F2F3A"></path>
</g>
<path d="M41.4163 25.5508V3.32296H48.9727C50.8618 3.32296 52.4781 3.62559 53.8214 4.23085C55.1858 4.83612 56.2248 5.71271 56.9385 6.86062C57.6521 8.00854 58.009 9.39647 58.009 11.0244C58.009 12.1515 57.7886 13.1846 57.3478 14.1238C56.928 15.063 56.3193 15.877 55.5216 16.5657C54.745 17.2336 53.8109 17.7554 52.7195 18.1311C51.628 18.4859 50.4105 18.6633 49.0672 18.6633C48.3535 18.6633 47.5979 18.6007 46.8002 18.4754V25.5508H41.4163ZM46.8002 7.86244V13.9673C47.5349 14.0716 48.2066 14.1238 48.8153 14.1238C49.9907 14.1238 50.8933 13.8629 51.523 13.3411C52.1737 12.7985 52.4991 12.0158 52.4991 10.9931C52.4991 9.9913 52.1842 9.21907 51.5545 8.67642C50.9458 8.13377 50.0537 7.86244 48.8783 7.86244H46.8002Z" fill="currentColor"></path>
<path d="M67.0052 26.0204C65.7458 26.0204 64.5703 25.8012 63.4789 25.3629C62.4084 24.9246 61.4638 24.3089 60.6452 23.5158C59.8476 22.7227 59.2283 21.794 58.7876 20.7295C58.3468 19.6651 58.1264 18.5067 58.1264 17.2545C58.1264 16.0022 58.3468 14.8439 58.7876 13.7794C59.2493 12.6941 59.879 11.7549 60.6767 10.9618C61.4953 10.1478 62.4503 9.5217 63.5418 9.08341C64.6543 8.62424 65.8507 8.39466 67.1311 8.39466C68.3905 8.39466 69.5555 8.6138 70.626 9.0521C71.7175 9.49039 72.662 10.1165 73.4597 10.9305C74.2783 11.7236 74.908 12.6524 75.3488 13.7168C75.7896 14.7812 76.01 15.9396 76.01 17.1919C76.01 18.4441 75.7791 19.6129 75.3173 20.6982C74.8765 21.7627 74.2468 22.6914 73.4282 23.4845C72.6306 24.2776 71.6755 24.9038 70.563 25.3629C69.4715 25.8012 68.2856 26.0204 67.0052 26.0204ZM67.0682 21.4183C67.7608 21.4183 68.3905 21.2409 68.9573 20.8861C69.524 20.5104 69.9648 20.0095 70.2797 19.3833C70.6155 18.7363 70.7834 18.0163 70.7834 17.2232C70.7834 16.4092 70.6155 15.6891 70.2797 15.063C69.9648 14.416 69.524 13.9151 68.9573 13.5603C68.3905 13.1846 67.7608 12.9968 67.0682 12.9968C66.3755 12.9968 65.7458 13.1846 65.1791 13.5603C64.6123 13.9151 64.161 14.416 63.8252 15.063C63.5103 15.6891 63.3529 16.4092 63.3529 17.2232C63.3529 18.0163 63.5103 18.7363 63.8252 19.3833C64.161 20.0095 64.6123 20.5104 65.1791 20.8861C65.7458 21.2409 66.3755 21.4183 67.0682 21.4183Z" fill="currentColor"></path>
<path d="M77.2987 25.5508V2.1333H82.4308V25.5508H77.2987Z" fill="currentColor"></path>
<path d="M87.5563 32C86.9476 32 86.3704 31.9374 85.8246 31.8121C85.2789 31.6869 84.7646 31.4886 84.2819 31.2173L85.1949 27.304C85.4258 27.4083 85.6987 27.5022 86.0136 27.5857C86.3494 27.6692 86.6642 27.7109 86.9581 27.7109C87.5248 27.7109 88.0181 27.5335 88.4379 27.1787C88.8577 26.8448 89.2146 26.3126 89.5084 25.5821L89.6344 25.3003L82.928 8.86426H88.5639L92.0272 19.8216L95.1128 8.86426H100.56L93.8849 26.7404C93.2132 28.5354 92.3631 29.8607 91.3346 30.7164C90.306 31.5721 89.0466 32 87.5563 32Z" fill="currentColor"></path>
<path d="M105.63 25.5508L100.088 8.86426H105.441L108.086 19.4146L111.108 8.86426H115.642L118.665 19.4773L121.404 8.86426H126.568L121.026 25.5508H116.272L113.312 15.0943L110.321 25.5508H105.63Z" fill="currentColor"></path>
<path d="M134.694 26.0204C133.435 26.0204 132.259 25.8012 131.168 25.3629C130.097 24.9246 129.153 24.3089 128.334 23.5158C127.536 22.7227 126.917 21.794 126.476 20.7295C126.036 19.6651 125.815 18.5067 125.815 17.2545C125.815 16.0022 126.036 14.8439 126.476 13.7794C126.938 12.6941 127.568 11.7549 128.365 10.9618C129.184 10.1478 130.139 9.5217 131.231 9.08341C132.343 8.62424 133.54 8.39466 134.82 8.39466C136.079 8.39466 137.244 8.6138 138.315 9.0521C139.406 9.49039 140.351 10.1165 141.148 10.9305C141.967 11.7236 142.597 12.6524 143.038 13.7168C143.478 14.7812 143.699 15.9396 143.699 17.1919C143.699 18.4441 143.468 19.6129 143.006 20.6982C142.565 21.7627 141.936 22.6914 141.117 23.4845C140.319 24.2776 139.364 24.9038 138.252 25.3629C137.16 25.8012 135.974 26.0204 134.694 26.0204ZM134.757 21.4183C135.45 21.4183 136.079 21.2409 136.646 20.8861C137.213 20.5104 137.654 20.0095 137.968 19.3833C138.304 18.7363 138.472 18.0163 138.472 17.2232C138.472 16.4092 138.304 15.6891 137.968 15.063C137.654 14.416 137.213 13.9151 136.646 13.5603C136.079 13.1846 135.45 12.9968 134.757 12.9968C134.064 12.9968 133.435 13.1846 132.868 13.5603C132.301 13.9151 131.85 14.416 131.514 15.063C131.199 15.6891 131.042 16.4092 131.042 17.2232C131.042 18.0163 131.199 18.7363 131.514 19.3833C131.85 20.0095 132.301 20.5104 132.868 20.8861C133.435 21.2409 134.064 21.4183 134.757 21.4183Z" fill="currentColor"></path>
<path d="M144.988 25.5508V8.86426H149.71L149.899 11.5253C150.298 10.607 150.854 9.89738 151.568 9.39647C152.282 8.89556 153.111 8.64511 154.055 8.64511C154.328 8.64511 154.601 8.66598 154.874 8.70772C155.147 8.74947 155.388 8.82252 155.598 8.92687L155.094 13.9986C154.863 13.9151 154.622 13.8629 154.37 13.842C154.139 13.8003 153.898 13.7794 153.646 13.7794C152.471 13.7794 151.589 14.1134 151.001 14.7812C150.413 15.4282 150.12 16.3779 150.12 17.6302V25.5508H144.988Z" fill="currentColor"></path>
<path d="M156.429 25.5508V2.1333H161.561V15.5326L167.103 8.86426H172.927L166.504 16.2527L173.683 25.5508H167.354L161.561 17.3484V25.5508H156.429Z" fill="currentColor"></path>
<defs>
<clipPath id="clip0_231_30257">
<rect width="32" height="32" fill="white" transform="translate(0.882812)"></rect>
</clipPath>
</defs>
</svg>